<svg xmlns="http://www.w3.org/2000/svg" version="1.1" xmlns:xlink="http://www.w3.org/1999/xlink" xmlns:svgjs="http://svgjs.dev/svgjs" width="1000" height="517" viewBox="0 0 1000 517"><g transform="matrix(1,0,0,1,-0.6060606060606233,0.6081103218512567)"><svg viewBox="0 0 396 205" data-background-color="#f5fdfe" preserveAspectRatio="xMidYMid meet" height="517" width="1000" xmlns="http://www.w3.org/2000/svg" xmlns:xlink="http://www.w3.org/1999/xlink"><g id="tight-bounds" transform="matrix(1,0,0,1,0.2400000000000091,-0.24112691678821818)"><svg viewBox="0 0 395.52 205.48225383357644" height="205.48225383357644" width="395.52"><g><svg viewBox="0 0 395.52 205.48225383357644" height="205.48225383357644" width="395.52"><g><svg viewBox="0 0 395.52 205.48225383357644" height="205.48225383357644" width="395.52"><g><svg viewBox="0 0 395.52 205.48225383357644" height="205.48225383357644" width="395.52"><g transform="matrix(1,0,0,1,0,143.38568855868508)"><svg viewBox="0 0 395.52 62.096565274891354" height="62.096565274891354" width="395.52"><g id="textblocktransform"><svg viewBox="0 0 395.52 62.096565274891354" height="62.096565274891354" width="395.52" id="textblock"><g><svg viewBox="0 0 395.52 62.096565274891354" height="62.096565274891354" width="395.52"><g transform="matrix(1,0,0,1,0,0)"><svg width="395.52" viewBox="2.05 -41 264.63 41.55" height="62.096565274891354" data-palette-color="#111111"><path d="M13.55 0.55L13.55 0.55Q9.8 0.55 7.3-0.83 4.8-2.2 3.53-4.98 2.25-7.75 2.05-12.05L2.05-12.05 9.15-13.25Q9.25-10.75 9.68-9.08 10.1-7.4 10.98-6.58 11.85-5.75 13.15-5.75L13.15-5.75Q14.75-5.75 15.33-6.75 15.9-7.75 15.9-9.05L15.9-9.05Q15.9-11.6 14.68-13.33 13.45-15.05 11.45-16.8L11.45-16.8 7.25-20.45Q5-22.35 3.58-24.75 2.15-27.15 2.15-30.65L2.15-30.65Q2.15-35.65 5.08-38.33 8-41 13.1-41L13.1-41Q16.15-41 18.1-40 20.05-39 21.13-37.33 22.2-35.65 22.63-33.68 23.05-31.7 23.15-29.75L23.15-29.75 16.1-28.7Q16-30.55 15.78-31.95 15.55-33.35 14.88-34.15 14.2-34.95 12.85-34.95L12.85-34.95Q11.4-34.95 10.7-33.88 10-32.8 10-31.5L10-31.5Q10-29.35 10.98-27.98 11.95-26.6 13.65-25.1L13.65-25.1 17.75-21.5Q20.3-19.3 22.13-16.48 23.95-13.65 23.95-9.5L23.95-9.5Q23.95-6.65 22.65-4.35 21.35-2.05 19.03-0.75 16.7 0.55 13.55 0.55ZM39.55 0.55L39.55 0.55Q35.05 0.55 32.42-1.15 29.8-2.85 28.75-5.88 27.7-8.9 27.7-12.9L27.7-12.9 27.7-27.45Q27.7-31.65 28.75-34.68 29.8-37.7 32.42-39.35 35.05-41 39.55-41L39.55-41Q43.9-41 46.37-39.55 48.85-38.1 49.87-35.45 50.9-32.8 50.9-29.3L50.9-29.3 50.9-25.9 42.9-25.9 42.9-29.7Q42.9-31.1 42.75-32.33 42.6-33.55 41.92-34.33 41.25-35.1 39.6-35.1L39.6-35.1Q37.95-35.1 37.2-34.3 36.45-33.5 36.25-32.23 36.05-30.95 36.05-29.4L36.05-29.4 36.05-11Q36.05-9.3 36.32-8.03 36.6-6.75 37.37-6.08 38.15-5.4 39.6-5.4L39.6-5.4Q41.2-5.4 41.87-6.18 42.55-6.95 42.72-8.25 42.9-9.55 42.9-11L42.9-11 42.9-14.95 50.9-14.95 50.9-11.6Q50.9-8.05 49.9-5.33 48.9-2.6 46.45-1.03 44 0.55 39.55 0.55ZM67.34 0.55L67.34 0.55Q62.75 0.55 60.2-1.03 57.65-2.6 56.62-5.58 55.6-8.55 55.6-12.8L55.6-12.8 55.6-40.5 63.75-40.5 63.75-11.65Q63.75-10.15 63.97-8.7 64.2-7.25 64.97-6.35 65.75-5.45 67.34-5.45L67.34-5.45Q69-5.45 69.77-6.35 70.55-7.25 70.75-8.7 70.95-10.15 70.95-11.65L70.95-11.65 70.95-40.5 79.09-40.5 79.09-12.8Q79.09-8.55 78.07-5.58 77.05-2.6 74.5-1.03 71.95 0.55 67.34 0.55ZM102.59 0L84.84 0 84.84-40.5 93.09-40.5 93.09-5.6 102.59-5.6 102.59 0ZM123.94 0L106.19 0 106.19-40.5 114.44-40.5 114.44-5.6 123.94-5.6 123.94 0ZM136.79 0L129.64 0 124.39-40.5 131.39-40.5 134.19-15.75 137.74-40.45 143.29-40.45 146.99-15.8 149.79-40.5 156.69-40.5 151.49 0 144.49 0 140.54-25.65 136.79 0ZM172.34 0.55L172.34 0.55Q167.89 0.55 165.29-1.05 162.69-2.65 161.56-5.63 160.44-8.6 160.44-12.75L160.44-12.75 160.44-27.85Q160.44-32 161.56-34.95 162.69-37.9 165.29-39.45 167.89-41 172.34-41L172.34-41Q176.84-41 179.46-39.43 182.09-37.85 183.21-34.93 184.34-32 184.34-27.85L184.34-27.85 184.34-12.75Q184.34-8.6 183.21-5.63 182.09-2.65 179.46-1.05 176.84 0.55 172.34 0.55ZM172.34-5.4L172.34-5.4Q173.94-5.4 174.69-6.13 175.44-6.85 175.69-8.08 175.94-9.3 175.94-10.7L175.94-10.7 175.94-29.85Q175.94-31.25 175.69-32.45 175.44-33.65 174.69-34.38 173.94-35.1 172.34-35.1L172.34-35.1Q170.84-35.1 170.09-34.38 169.34-33.65 169.09-32.45 168.84-31.25 168.84-29.85L168.84-29.85 168.84-10.7Q168.84-9.3 169.06-8.08 169.29-6.85 170.04-6.13 170.79-5.4 172.34-5.4ZM198.08 0L189.83 0 189.83-40.5 200.33-40.5Q204.43-40.5 207.36-39.58 210.28-38.65 211.86-36.3 213.43-33.95 213.43-29.8L213.43-29.8Q213.43-27.3 213.01-25.38 212.58-23.45 211.51-22.03 210.43-20.6 208.48-19.75L208.48-19.75 214.08 0 205.63 0 200.98-18.35 198.08-18.35 198.08 0ZM198.08-34.9L198.08-23.25 200.48-23.25Q202.48-23.25 203.63-23.9 204.78-24.55 205.26-25.88 205.73-27.2 205.73-29.15L205.73-29.15Q205.73-31.95 204.71-33.43 203.68-34.9 200.88-34.9L200.88-34.9 198.08-34.9ZM227.08 0L218.83 0 218.83-40.5 227.08-40.5 227.08-23.4 234.38-40.5 242.38-40.5 234.78-22.3 242.93 0 234.63 0 228.38-18.15 227.08-15.85 227.08 0ZM256.28 0.55L256.28 0.55Q252.53 0.55 250.03-0.83 247.53-2.2 246.25-4.98 244.98-7.75 244.78-12.05L244.78-12.05 251.88-13.25Q251.98-10.75 252.4-9.08 252.83-7.4 253.7-6.58 254.58-5.75 255.88-5.75L255.88-5.75Q257.48-5.75 258.05-6.75 258.63-7.75 258.63-9.05L258.63-9.05Q258.63-11.6 257.4-13.33 256.18-15.05 254.18-16.8L254.18-16.8 249.98-20.45Q247.73-22.35 246.3-24.75 244.88-27.15 244.88-30.65L244.88-30.65Q244.88-35.65 247.8-38.33 250.73-41 255.83-41L255.83-41Q258.88-41 260.83-40 262.78-39 263.85-37.33 264.93-35.65 265.35-33.68 265.78-31.7 265.88-29.75L265.88-29.75 258.83-28.7Q258.73-30.55 258.5-31.95 258.28-33.35 257.6-34.15 256.93-34.95 255.58-34.95L255.58-34.95Q254.13-34.95 253.43-33.88 252.73-32.8 252.73-31.5L252.73-31.5Q252.73-29.35 253.7-27.98 254.68-26.6 256.38-25.1L256.38-25.1 260.48-21.5Q263.03-19.3 264.85-16.48 266.68-13.65 266.68-9.5L266.68-9.5Q266.68-6.65 265.38-4.35 264.08-2.05 261.75-0.75 259.43 0.55 256.28 0.55Z" opacity="1" transform="matrix(1,0,0,1,0,0)" fill="#111111" class="undefined-text-0" data-fill-palette-color="primary" id="text-0"></path></svg></g></svg></g></svg></g></svg></g><g transform="matrix(1,0,0,1,129.28625971980694,0)"><svg viewBox="0 0 136.9474805603861 128.72617981484981" height="128.72617981484981" width="136.9474805603861"><g><svg xmlns="http://www.w3.org/2000/svg" xmlns:xlink="http://www.w3.org/1999/xlink" version="1.1" x="0" y="0" viewBox="5.225 8.1025 88.28549999999998 82.9855" enable-background="new 0 0 100 100" xml:space="preserve" height="128.72617981484981" width="136.9474805603861" class="icon-icon-0" data-fill-palette-color="accent" id="icon-0"><path d="M84.206 15.166c-2.141-2.14-10.537 0.833-17.08 4.032-5.84 2.855-17.314 9.321-28.54 20.548C20.831 57.5 10.143 81.501 14.006 85.365c0.482 0.482 1.348 0.719 2.533 0.719 7.331-0.001 26.858-9.07 43.087-25.299C78.12 42.293 87.581 18.541 84.206 15.166zM39.683 60.649L20.684 79.648c-0.133 0.133-0.306 0.199-0.48 0.199-0.174 0-0.347-0.066-0.48-0.199-0.265-0.265-0.265-0.695 0-0.96l18.999-18.999c0.265-0.265 0.695-0.265 0.96 0C39.948 59.954 39.948 60.384 39.683 60.649zM58.219 49.328c-0.563 5.314-5.115 10.101-10.168 10.693-5.053 0.592-8.693-3.237-8.131-8.55 0.563-5.314 5.115-10.101 10.168-10.693C55.141 40.185 58.781 44.014 58.219 49.328zM78.161 22.17L59.162 41.17c-0.133 0.133-0.306 0.199-0.48 0.199s-0.347-0.066-0.48-0.199c-0.265-0.265-0.265-0.695 0-0.96L77.201 21.21c0.265-0.265 0.695-0.265 0.96 0C78.427 21.476 78.427 21.905 78.161 22.17z" fill="#111111" data-fill-palette-color="accent"></path><path d="M56.687 8.401c-0.398-0.398-1.042-0.398-1.44 0L21.832 41.816l-4.82-0.047c-0.264-0.012-0.537 0.105-0.73 0.298L5.523 52.825c-0.191 0.191-0.298 0.45-0.298 0.72s0.107 0.529 0.298 0.72l5.3 5.299c0.199 0.199 0.46 0.298 0.72 0.298 0.261 0 0.521-0.099 0.72-0.298l10.758-10.758c0.194-0.193 0.301-0.457 0.298-0.73l-0.047-4.82L56.687 9.841C57.085 9.443 57.085 8.798 56.687 8.401z" fill="#111111" data-fill-palette-color="accent"></path><path d="M93.212 44.926l-5.299-5.299c-0.191-0.191-0.45-0.298-0.72-0.298s-0.529 0.107-0.72 0.298L75.715 50.385c-0.194 0.193-0.301 0.457-0.298 0.73l0.047 4.82L42.049 89.35c-0.398 0.398-0.398 1.042 0 1.44 0.199 0.199 0.46 0.298 0.72 0.298 0.261 0 0.521-0.099 0.72-0.298l33.415-33.415 4.82 0.047c0.003 0 0.007 0 0.01 0 0.27 0 0.529-0.107 0.72-0.298l10.758-10.758C93.61 45.969 93.61 45.324 93.212 44.926z" fill="#111111" data-fill-palette-color="accent"></path></svg></g></svg></g><g></g></svg></g></svg></g></svg></g><defs></defs></svg><rect width="395.52" height="205.48225383357644" fill="none" stroke="none" visibility="hidden"></rect></g></svg></g></svg>