<?xml version="1.0" encoding="iso-8859-1"?>
<!-- Uploaded to: SVG Repo, www.svgrepo.com, Generator: SVG Repo Mixer Tools -->
<svg fill="#000000" height="800px" width="800px" version="1.1" id="Layer_1" xmlns="http://www.w3.org/2000/svg" xmlns:xlink="http://www.w3.org/1999/xlink" 
	 viewBox="0 0 511.996 511.996" xml:space="preserve">
<g>
	<g>
		<path d="M510.063,190.856c-1.621-1.98-4.036-3.123-6.596-3.123H233.933l-42.667-42.667l11.034-11.034
			c3.337-3.337,3.337-8.73,0-12.066s-8.73-3.337-12.066,0L156.1,156.1c-3.337,3.336-3.337,8.73,0,12.066
			c1.664,1.664,3.849,2.5,6.033,2.5c2.185,0,4.369-0.836,6.033-2.5l11.034-11.034l30.601,30.601H8.533
			c-4.719,0-8.533,3.823-8.533,8.533c0,51.755,49.766,93.867,110.933,93.867h201.267l29.286,29.286
			c1.579,35.328,25.566,73.114,59.58,73.114c2.27,0,4.437-0.896,6.033-2.5l17.067-17.067c1.604-1.596,2.5-3.772,2.5-6.033
			c0-34.014-37.794-58.001-73.114-59.58l-17.22-17.22H486.4c4.07,0,7.569-2.867,8.363-6.861l17.067-85.333
			C512.333,195.43,511.684,192.835,510.063,190.856z"/>
	</g>
</g>
</svg>